<?xml version="1.0" encoding="utf-8"?>
<svg viewBox="0 0 500 500" xmlns="http://www.w3.org/2000/svg">
  <rect width="500" height="500" style="fill: rgb(255, 255, 255);"/>
  <path d="M 0 0 L 15.152 0 L 15.152 15.152 L 0 15.152 L 0 0 Z M 15.152 0 L 30.303 0 L 30.303 15.152 L 15.152 15.152 L 15.152 0 Z M 30.303 0 L 45.455 0 L 45.455 15.152 L 30.303 15.152 L 30.303 0 Z M 45.455 0 L 60.606 0 L 60.606 15.152 L 45.455 15.152 L 45.455 0 Z M 60.606 0 L 75.758 0 L 75.758 15.152 L 60.606 15.152 L 60.606 0 Z M 75.758 0 L 90.909 0 L 90.909 15.152 L 75.758 15.152 L 75.758 0 Z M 90.909 0 L 106.061 0 L 106.061 15.152 L 90.909 15.152 L 90.909 0 Z M 136.364 0 L 151.515 0 L 151.515 15.152 L 136.364 15.152 L 136.364 0 Z M 227.273 0 L 242.424 0 L 242.424 15.152 L 227.273 15.152 L 227.273 0 Z M 242.424 0 L 257.576 0 L 257.576 15.152 L 242.424 15.152 L 242.424 0 Z M 287.879 0 L 303.03 0 L 303.03 15.152 L 287.879 15.152 L 287.879 0 Z M 333.333 0 L 348.485 0 L 348.485 15.152 L 333.333 15.152 L 333.333 0 Z M 348.485 0 L 363.636 0 L 363.636 15.152 L 348.485 15.152 L 348.485 0 Z M 363.636 0 L 378.788 0 L 378.788 15.152 L 363.636 15.152 L 363.636 0 Z M 393.939 0 L 409.091 0 L 409.091 15.152 L 393.939 15.152 L 393.939 0 Z M 409.091 0 L 424.242 0 L 424.242 15.152 L 409.091 15.152 L 409.091 0 Z M 424.242 0 L 439.394 0 L 439.394 15.152 L 424.242 15.152 L 424.242 0 Z M 439.394 0 L 454.545 0 L 454.545 15.152 L 439.394 15.152 L 439.394 0 Z M 454.545 0 L 469.697 0 L 469.697 15.152 L 454.545 15.152 L 454.545 0 Z M 469.697 0 L 484.848 0 L 484.848 15.152 L 469.697 15.152 L 469.697 0 Z M 484.848 0 L 500 0 L 500 15.152 L 484.848 15.152 L 484.848 0 Z M 0 15.152 L 15.152 15.152 L 15.152 30.303 L 0 30.303 L 0 15.152 Z M 90.909 15.152 L 106.061 15.152 L 106.061 30.303 L 90.909 30.303 L 90.909 15.152 Z M 121.212 15.152 L 136.364 15.152 L 136.364 30.303 L 121.212 30.303 L 121.212 15.152 Z M 136.364 15.152 L 151.515 15.152 L 151.515 30.303 L 136.364 30.303 L 136.364 15.152 Z M 166.667 15.152 L 181.818 15.152 L 181.818 30.303 L 166.667 30.303 L 166.667 15.152 Z M 181.818 15.152 L 196.97 15.152 L 196.97 30.303 L 181.818 30.303 L 181.818 15.152 Z M 272.727 15.152 L 287.879 15.152 L 287.879 30.303 L 272.727 30.303 L 272.727 15.152 Z M 303.03 15.152 L 318.182 15.152 L 318.182 30.303 L 303.03 30.303 L 303.03 15.152 Z M 318.182 15.152 L 333.333 15.152 L 333.333 30.303 L 318.182 30.303 L 318.182 15.152 Z M 393.939 15.152 L 409.091 15.152 L 409.091 30.303 L 393.939 30.303 L 393.939 15.152 Z M 484.848 15.152 L 500 15.152 L 500 30.303 L 484.848 30.303 L 484.848 15.152 Z M 0 30.303 L 15.152 30.303 L 15.152 45.455 L 0 45.455 L 0 30.303 Z M 30.303 30.303 L 45.455 30.303 L 45.455 45.455 L 30.303 45.455 L 30.303 30.303 Z M 45.455 30.303 L 60.606 30.303 L 60.606 45.455 L 45.455 45.455 L 45.455 30.303 Z M 60.606 30.303 L 75.758 30.303 L 75.758 45.455 L 60.606 45.455 L 60.606 30.303 Z M 90.909 30.303 L 106.061 30.303 L 106.061 45.455 L 90.909 45.455 L 90.909 30.303 Z M 136.364 30.303 L 151.515 30.303 L 151.515 45.455 L 136.364 45.455 L 136.364 30.303 Z M 151.515 30.303 L 166.667 30.303 L 166.667 45.455 L 151.515 45.455 L 151.515 30.303 Z M 166.667 30.303 L 181.818 30.303 L 181.818 45.455 L 166.667 45.455 L 166.667 30.303 Z M 212.121 30.303 L 227.273 30.303 L 227.273 45.455 L 212.121 45.455 L 212.121 30.303 Z M 242.424 30.303 L 257.576 30.303 L 257.576 45.455 L 242.424 45.455 L 242.424 30.303 Z M 287.879 30.303 L 303.03 30.303 L 303.03 45.455 L 287.879 45.455 L 287.879 30.303 Z M 303.03 30.303 L 318.182 30.303 L 318.182 45.455 L 303.03 45.455 L 303.03 30.303 Z M 318.182 30.303 L 333.333 30.303 L 333.333 45.455 L 318.182 45.455 L 318.182 30.303 Z M 333.333 30.303 L 348.485 30.303 L 348.485 45.455 L 333.333 45.455 L 333.333 30.303 Z M 348.485 30.303 L 363.636 30.303 L 363.636 45.455 L 348.485 45.455 L 348.485 30.303 Z M 393.939 30.303 L 409.091 30.303 L 409.091 45.455 L 393.939 45.455 L 393.939 30.303 Z M 424.242 30.303 L 439.394 30.303 L 439.394 45.455 L 424.242 45.455 L 424.242 30.303 Z M 439.394 30.303 L 454.545 30.303 L 454.545 45.455 L 439.394 45.455 L 439.394 30.303 Z M 454.545 30.303 L 469.697 30.303 L 469.697 45.455 L 454.545 45.455 L 454.545 30.303 Z M 484.848 30.303 L 500 30.303 L 500 45.455 L 484.848 45.455 L 484.848 30.303 Z M 0 45.455 L 15.152 45.455 L 15.152 60.606 L 0 60.606 L 0 45.455 Z M 30.303 45.455 L 45.455 45.455 L 45.455 60.606 L 30.303 60.606 L 30.303 45.455 Z M 45.455 45.455 L 60.606 45.455 L 60.606 60.606 L 45.455 60.606 L 45.455 45.455 Z M 60.606 45.455 L 75.758 45.455 L 75.758 60.606 L 60.606 60.606 L 60.606 45.455 Z M 90.909 45.455 L 106.061 45.455 L 106.061 60.606 L 90.909 60.606 L 90.909 45.455 Z M 121.212 45.455 L 136.364 45.455 L 136.364 60.606 L 121.212 60.606 L 121.212 45.455 Z M 136.364 45.455 L 151.515 45.455 L 151.515 60.606 L 136.364 60.606 L 136.364 45.455 Z M 166.667 45.455 L 181.818 45.455 L 181.818 60.606 L 166.667 60.606 L 166.667 45.455 Z M 257.576 45.455 L 272.727 45.455 L 272.727 60.606 L 257.576 60.606 L 257.576 45.455 Z M 272.727 45.455 L 287.879 45.455 L 287.879 60.606 L 272.727 60.606 L 272.727 45.455 Z M 287.879 45.455 L 303.03 45.455 L 303.03 60.606 L 287.879 60.606 L 287.879 45.455 Z M 348.485 45.455 L 363.636 45.455 L 363.636 60.606 L 348.485 60.606 L 348.485 45.455 Z M 363.636 45.455 L 378.788 45.455 L 378.788 60.606 L 363.636 60.606 L 363.636 45.455 Z M 393.939 45.455 L 409.091 45.455 L 409.091 60.606 L 393.939 60.606 L 393.939 45.455 Z M 424.242 45.455 L 439.394 45.455 L 439.394 60.606 L 424.242 60.606 L 424.242 45.455 Z M 439.394 45.455 L 454.545 45.455 L 454.545 60.606 L 439.394 60.606 L 439.394 45.455 Z M 454.545 45.455 L 469.697 45.455 L 469.697 60.606 L 454.545 60.606 L 454.545 45.455 Z M 484.848 45.455 L 500 45.455 L 500 60.606 L 484.848 60.606 L 484.848 45.455 Z M 0 60.606 L 15.152 60.606 L 15.152 75.758 L 0 75.758 L 0 60.606 Z M 30.303 60.606 L 45.455 60.606 L 45.455 75.758 L 30.303 75.758 L 30.303 60.606 Z M 45.455 60.606 L 60.606 60.606 L 60.606 75.758 L 45.455 75.758 L 45.455 60.606 Z M 60.606 60.606 L 75.758 60.606 L 75.758 75.758 L 60.606 75.758 L 60.606 60.606 Z M 90.909 60.606 L 106.061 60.606 L 106.061 75.758 L 90.909 75.758 L 90.909 60.606 Z M 151.515 60.606 L 166.667 60.606 L 166.667 75.758 L 151.515 75.758 L 151.515 60.606 Z M 181.818 60.606 L 196.97 60.606 L 196.97 75.758 L 181.818 75.758 L 181.818 60.606 Z M 196.97 60.606 L 212.121 60.606 L 212.121 75.758 L 196.97 75.758 L 196.97 60.606 Z M 212.121 60.606 L 227.273 60.606 L 227.273 75.758 L 212.121 75.758 L 212.121 60.606 Z M 227.273 60.606 L 242.424 60.606 L 242.424 75.758 L 227.273 75.758 L 227.273 60.606 Z M 257.576 60.606 L 272.727 60.606 L 272.727 75.758 L 257.576 75.758 L 257.576 60.606 Z M 272.727 60.606 L 287.879 60.606 L 287.879 75.758 L 272.727 75.758 L 272.727 60.606 Z M 287.879 60.606 L 303.03 60.606 L 303.03 75.758 L 287.879 75.758 L 287.879 60.606 Z M 318.182 60.606 L 333.333 60.606 L 333.333 75.758 L 318.182 75.758 L 318.182 60.606 Z M 333.333 60.606 L 348.485 60.606 L 348.485 75.758 L 333.333 75.758 L 333.333 60.606 Z M 348.485 60.606 L 363.636 60.606 L 363.636 75.758 L 348.485 75.758 L 348.485 60.606 Z M 363.636 60.606 L 378.788 60.606 L 378.788 75.758 L 363.636 75.758 L 363.636 60.606 Z M 393.939 60.606 L 409.091 60.606 L 409.091 75.758 L 393.939 75.758 L 393.939 60.606 Z M 424.242 60.606 L 439.394 60.606 L 439.394 75.758 L 424.242 75.758 L 424.242 60.606 Z M 439.394 60.606 L 454.545 60.606 L 454.545 75.758 L 439.394 75.758 L 439.394 60.606 Z M 454.545 60.606 L 469.697 60.606 L 469.697 75.758 L 454.545 75.758 L 454.545 60.606 Z M 484.848 60.606 L 500 60.606 L 500 75.758 L 484.848 75.758 L 484.848 60.606 Z M 0 75.758 L 15.152 75.758 L 15.152 90.909 L 0 90.909 L 0 75.758 Z M 90.909 75.758 L 106.061 75.758 L 106.061 90.909 L 90.909 90.909 L 90.909 75.758 Z M 121.212 75.758 L 136.364 75.758 L 136.364 90.909 L 121.212 90.909 L 121.212 75.758 Z M 151.515 75.758 L 166.667 75.758 L 166.667 90.909 L 151.515 90.909 L 151.515 75.758 Z M 196.97 75.758 L 212.121 75.758 L 212.121 90.909 L 196.97 90.909 L 196.97 75.758 Z M 212.121 75.758 L 227.273 75.758 L 227.273 90.909 L 212.121 90.909 L 212.121 75.758 Z M 227.273 75.758 L 242.424 75.758 L 242.424 90.909 L 227.273 90.909 L 227.273 75.758 Z M 242.424 75.758 L 257.576 75.758 L 257.576 90.909 L 242.424 90.909 L 242.424 75.758 Z M 303.03 75.758 L 318.182 75.758 L 318.182 90.909 L 303.03 90.909 L 303.03 75.758 Z M 363.636 75.758 L 378.788 75.758 L 378.788 90.909 L 363.636 90.909 L 363.636 75.758 Z M 393.939 75.758 L 409.091 75.758 L 409.091 90.909 L 393.939 90.909 L 393.939 75.758 Z M 484.848 75.758 L 500 75.758 L 500 90.909 L 484.848 90.909 L 484.848 75.758 Z M 0 90.909 L 15.152 90.909 L 15.152 106.061 L 0 106.061 L 0 90.909 Z M 15.152 90.909 L 30.303 90.909 L 30.303 106.061 L 15.152 106.061 L 15.152 90.909 Z M 30.303 90.909 L 45.455 90.909 L 45.455 106.061 L 30.303 106.061 L 30.303 90.909 Z M 45.455 90.909 L 60.606 90.909 L 60.606 106.061 L 45.455 106.061 L 45.455 90.909 Z M 60.606 90.909 L 75.758 90.909 L 75.758 106.061 L 60.606 106.061 L 60.606 90.909 Z M 75.758 90.909 L 90.909 90.909 L 90.909 106.061 L 75.758 106.061 L 75.758 90.909 Z M 90.909 90.909 L 106.061 90.909 L 106.061 106.061 L 90.909 106.061 L 90.909 90.909 Z M 121.212 90.909 L 136.364 90.909 L 136.364 106.061 L 121.212 106.061 L 121.212 90.909 Z M 151.515 90.909 L 166.667 90.909 L 166.667 106.061 L 151.515 106.061 L 151.515 90.909 Z M 181.818 90.909 L 196.97 90.909 L 196.97 106.061 L 181.818 106.061 L 181.818 90.909 Z M 212.121 90.909 L 227.273 90.909 L 227.273 106.061 L 212.121 106.061 L 212.121 90.909 Z M 242.424 90.909 L 257.576 90.909 L 257.576 106.061 L 242.424 106.061 L 242.424 90.909 Z M 272.727 90.909 L 287.879 90.909 L 287.879 106.061 L 272.727 106.061 L 272.727 90.909 Z M 303.03 90.909 L 318.182 90.909 L 318.182 106.061 L 303.03 106.061 L 303.03 90.909 Z M 333.333 90.909 L 348.485 90.909 L 348.485 106.061 L 333.333 106.061 L 333.333 90.909 Z M 363.636 90.909 L 378.788 90.909 L 378.788 106.061 L 363.636 106.061 L 363.636 90.909 Z M 393.939 90.909 L 409.091 90.909 L 409.091 106.061 L 393.939 106.061 L 393.939 90.909 Z M 409.091 90.909 L 424.242 90.909 L 424.242 106.061 L 409.091 106.061 L 409.091 90.909 Z M 424.242 90.909 L 439.394 90.909 L 439.394 106.061 L 424.242 106.061 L 424.242 90.909 Z M 439.394 90.909 L 454.545 90.909 L 454.545 106.061 L 439.394 106.061 L 439.394 90.909 Z M 454.545 90.909 L 469.697 90.909 L 469.697 106.061 L 454.545 106.061 L 454.545 90.909 Z M 469.697 90.909 L 484.848 90.909 L 484.848 106.061 L 469.697 106.061 L 469.697 90.909 Z M 484.848 90.909 L 500 90.909 L 500 106.061 L 484.848 106.061 L 484.848 90.909 Z M 181.818 106.061 L 196.97 106.061 L 196.97 121.212 L 181.818 121.212 L 181.818 106.061 Z M 196.97 106.061 L 212.121 106.061 L 212.121 121.212 L 196.97 121.212 L 196.97 106.061 Z M 227.273 106.061 L 242.424 106.061 L 242.424 121.212 L 227.273 121.212 L 227.273 106.061 Z M 287.879 106.061 L 303.03 106.061 L 303.03 121.212 L 287.879 121.212 L 287.879 106.061 Z M 318.182 106.061 L 333.333 106.061 L 333.333 121.212 L 318.182 121.212 L 318.182 106.061 Z M 363.636 106.061 L 378.788 106.061 L 378.788 121.212 L 363.636 121.212 L 363.636 106.061 Z M 0 121.212 L 15.152 121.212 L 15.152 136.364 L 0 136.364 L 0 121.212 Z M 15.152 121.212 L 30.303 121.212 L 30.303 136.364 L 15.152 136.364 L 15.152 121.212 Z M 30.303 121.212 L 45.455 121.212 L 45.455 136.364 L 30.303 136.364 L 30.303 121.212 Z M 45.455 121.212 L 60.606 121.212 L 60.606 136.364 L 45.455 136.364 L 45.455 121.212 Z M 60.606 121.212 L 75.758 121.212 L 75.758 136.364 L 60.606 136.364 L 60.606 121.212 Z M 90.909 121.212 L 106.061 121.212 L 106.061 136.364 L 90.909 136.364 L 90.909 121.212 Z M 106.061 121.212 L 121.212 121.212 L 121.212 136.364 L 106.061 136.364 L 106.061 121.212 Z M 121.212 121.212 L 136.364 121.212 L 136.364 136.364 L 121.212 136.364 L 121.212 121.212 Z M 136.364 121.212 L 151.515 121.212 L 151.515 136.364 L 136.364 136.364 L 136.364 121.212 Z M 151.515 121.212 L 166.667 121.212 L 166.667 136.364 L 151.515 136.364 L 151.515 121.212 Z M 181.818 121.212 L 196.97 121.212 L 196.97 136.364 L 181.818 136.364 L 181.818 121.212 Z M 212.121 121.212 L 227.273 121.212 L 227.273 136.364 L 212.121 136.364 L 212.121 121.212 Z M 227.273 121.212 L 242.424 121.212 L 242.424 136.364 L 227.273 136.364 L 227.273 121.212 Z M 242.424 121.212 L 257.576 121.212 L 257.576 136.364 L 242.424 136.364 L 242.424 121.212 Z M 303.03 121.212 L 318.182 121.212 L 318.182 136.364 L 303.03 136.364 L 303.03 121.212 Z M 378.788 121.212 L 393.939 121.212 L 393.939 136.364 L 378.788 136.364 L 378.788 121.212 Z M 409.091 121.212 L 424.242 121.212 L 424.242 136.364 L 409.091 136.364 L 409.091 121.212 Z M 439.394 121.212 L 454.545 121.212 L 454.545 136.364 L 439.394 136.364 L 439.394 121.212 Z M 469.697 121.212 L 484.848 121.212 L 484.848 136.364 L 469.697 136.364 L 469.697 121.212 Z M 0 136.364 L 15.152 136.364 L 15.152 151.515 L 0 151.515 L 0 136.364 Z M 30.303 136.364 L 45.455 136.364 L 45.455 151.515 L 30.303 151.515 L 30.303 136.364 Z M 106.061 136.364 L 121.212 136.364 L 121.212 151.515 L 106.061 151.515 L 106.061 136.364 Z M 121.212 136.364 L 136.364 136.364 L 136.364 151.515 L 121.212 151.515 L 121.212 136.364 Z M 136.364 136.364 L 151.515 136.364 L 151.515 151.515 L 136.364 151.515 L 136.364 136.364 Z M 287.879 136.364 L 303.03 136.364 L 303.03 151.515 L 287.879 151.515 L 287.879 136.364 Z M 303.03 136.364 L 318.182 136.364 L 318.182 151.515 L 303.03 151.515 L 303.03 136.364 Z M 318.182 136.364 L 333.333 136.364 L 333.333 151.515 L 318.182 151.515 L 318.182 136.364 Z M 333.333 136.364 L 348.485 136.364 L 348.485 151.515 L 333.333 151.515 L 333.333 136.364 Z M 348.485 136.364 L 363.636 136.364 L 363.636 151.515 L 348.485 151.515 L 348.485 136.364 Z M 378.788 136.364 L 393.939 136.364 L 393.939 151.515 L 378.788 151.515 L 378.788 136.364 Z M 393.939 136.364 L 409.091 136.364 L 409.091 151.515 L 393.939 151.515 L 393.939 136.364 Z M 454.545 136.364 L 469.697 136.364 L 469.697 151.515 L 454.545 151.515 L 454.545 136.364 Z M 469.697 136.364 L 484.848 136.364 L 484.848 151.515 L 469.697 151.515 L 469.697 136.364 Z M 484.848 136.364 L 500 136.364 L 500 151.515 L 484.848 151.515 L 484.848 136.364 Z M 0 151.515 L 15.152 151.515 L 15.152 166.667 L 0 166.667 L 0 151.515 Z M 15.152 151.515 L 30.303 151.515 L 30.303 166.667 L 15.152 166.667 L 15.152 151.515 Z M 90.909 151.515 L 106.061 151.515 L 106.061 166.667 L 90.909 166.667 L 90.909 151.515 Z M 106.061 151.515 L 121.212 151.515 L 121.212 166.667 L 106.061 166.667 L 106.061 151.515 Z M 136.364 151.515 L 151.515 151.515 L 151.515 166.667 L 136.364 166.667 L 136.364 151.515 Z M 166.667 151.515 L 181.818 151.515 L 181.818 166.667 L 166.667 166.667 L 166.667 151.515 Z M 181.818 151.515 L 196.97 151.515 L 196.97 166.667 L 181.818 166.667 L 181.818 151.515 Z M 227.273 151.515 L 242.424 151.515 L 242.424 166.667 L 227.273 166.667 L 227.273 151.515 Z M 242.424 151.515 L 257.576 151.515 L 257.576 166.667 L 242.424 166.667 L 242.424 151.515 Z M 257.576 151.515 L 272.727 151.515 L 272.727 166.667 L 257.576 166.667 L 257.576 151.515 Z M 303.03 151.515 L 318.182 151.515 L 318.182 166.667 L 303.03 166.667 L 303.03 151.515 Z M 318.182 151.515 L 333.333 151.515 L 333.333 166.667 L 318.182 166.667 L 318.182 151.515 Z M 378.788 151.515 L 393.939 151.515 L 393.939 166.667 L 378.788 166.667 L 378.788 151.515 Z M 409.091 151.515 L 424.242 151.515 L 424.242 166.667 L 409.091 166.667 L 409.091 151.515 Z M 424.242 151.515 L 439.394 151.515 L 439.394 166.667 L 424.242 166.667 L 424.242 151.515 Z M 439.394 151.515 L 454.545 151.515 L 454.545 166.667 L 439.394 166.667 L 439.394 151.515 Z M 469.697 151.515 L 484.848 151.515 L 484.848 166.667 L 469.697 166.667 L 469.697 151.515 Z M 30.303 166.667 L 45.455 166.667 L 45.455 181.818 L 30.303 181.818 L 30.303 166.667 Z M 60.606 166.667 L 75.758 166.667 L 75.758 181.818 L 60.606 181.818 L 60.606 166.667 Z M 136.364 166.667 L 151.515 166.667 L 151.515 181.818 L 136.364 181.818 L 136.364 166.667 Z M 151.515 166.667 L 166.667 166.667 L 166.667 181.818 L 151.515 181.818 L 151.515 166.667 Z M 166.667 166.667 L 181.818 166.667 L 181.818 181.818 L 166.667 181.818 L 166.667 166.667 Z M 212.121 166.667 L 227.273 166.667 L 227.273 181.818 L 212.121 181.818 L 212.121 166.667 Z M 242.424 166.667 L 257.576 166.667 L 257.576 181.818 L 242.424 181.818 L 242.424 166.667 Z M 272.727 166.667 L 287.879 166.667 L 287.879 181.818 L 272.727 181.818 L 272.727 166.667 Z M 303.03 166.667 L 318.182 166.667 L 318.182 181.818 L 303.03 181.818 L 303.03 166.667 Z M 318.182 166.667 L 333.333 166.667 L 333.333 181.818 L 318.182 181.818 L 318.182 166.667 Z M 348.485 166.667 L 363.636 166.667 L 363.636 181.818 L 348.485 181.818 L 348.485 166.667 Z M 409.091 166.667 L 424.242 166.667 L 424.242 181.818 L 409.091 181.818 L 409.091 166.667 Z M 454.545 166.667 L 469.697 166.667 L 469.697 181.818 L 454.545 181.818 L 454.545 166.667 Z M 30.303 181.818 L 45.455 181.818 L 45.455 196.97 L 30.303 196.97 L 30.303 181.818 Z M 45.455 181.818 L 60.606 181.818 L 60.606 196.97 L 45.455 196.97 L 45.455 181.818 Z M 90.909 181.818 L 106.061 181.818 L 106.061 196.97 L 90.909 196.97 L 90.909 181.818 Z M 121.212 181.818 L 136.364 181.818 L 136.364 196.97 L 121.212 196.97 L 121.212 181.818 Z M 136.364 181.818 L 151.515 181.818 L 151.515 196.97 L 136.364 196.97 L 136.364 181.818 Z M 166.667 181.818 L 181.818 181.818 L 181.818 196.97 L 166.667 196.97 L 166.667 181.818 Z M 257.576 181.818 L 272.727 181.818 L 272.727 196.97 L 257.576 196.97 L 257.576 181.818 Z M 348.485 181.818 L 363.636 181.818 L 363.636 196.97 L 348.485 196.97 L 348.485 181.818 Z M 363.636 181.818 L 378.788 181.818 L 378.788 196.97 L 363.636 196.97 L 363.636 181.818 Z M 378.788 181.818 L 393.939 181.818 L 393.939 196.97 L 378.788 196.97 L 378.788 181.818 Z M 424.242 181.818 L 439.394 181.818 L 439.394 196.97 L 424.242 196.97 L 424.242 181.818 Z M 439.394 181.818 L 454.545 181.818 L 454.545 196.97 L 439.394 196.97 L 439.394 181.818 Z M 0 196.97 L 15.152 196.97 L 15.152 212.121 L 0 212.121 L 0 196.97 Z M 30.303 196.97 L 45.455 196.97 L 45.455 212.121 L 30.303 212.121 L 30.303 196.97 Z M 106.061 196.97 L 121.212 196.97 L 121.212 212.121 L 106.061 212.121 L 106.061 196.97 Z M 121.212 196.97 L 136.364 196.97 L 136.364 212.121 L 121.212 212.121 L 121.212 196.97 Z M 136.364 196.97 L 151.515 196.97 L 151.515 212.121 L 136.364 212.121 L 136.364 196.97 Z M 151.515 196.97 L 166.667 196.97 L 166.667 212.121 L 151.515 212.121 L 151.515 196.97 Z M 181.818 196.97 L 196.97 196.97 L 196.97 212.121 L 181.818 212.121 L 181.818 196.97 Z M 196.97 196.97 L 212.121 196.97 L 212.121 212.121 L 196.97 212.121 L 196.97 196.97 Z M 212.121 196.97 L 227.273 196.97 L 227.273 212.121 L 212.121 212.121 L 212.121 196.97 Z M 257.576 196.97 L 272.727 196.97 L 272.727 212.121 L 257.576 212.121 L 257.576 196.97 Z M 272.727 196.97 L 287.879 196.97 L 287.879 212.121 L 272.727 212.121 L 272.727 196.97 Z M 287.879 196.97 L 303.03 196.97 L 303.03 212.121 L 287.879 212.121 L 287.879 196.97 Z M 303.03 196.97 L 318.182 196.97 L 318.182 212.121 L 303.03 212.121 L 303.03 196.97 Z M 318.182 196.97 L 333.333 196.97 L 333.333 212.121 L 318.182 212.121 L 318.182 196.97 Z M 333.333 196.97 L 348.485 196.97 L 348.485 212.121 L 333.333 212.121 L 333.333 196.97 Z M 348.485 196.97 L 363.636 196.97 L 363.636 212.121 L 348.485 212.121 L 348.485 196.97 Z M 363.636 196.97 L 378.788 196.97 L 378.788 212.121 L 363.636 212.121 L 363.636 196.97 Z M 393.939 196.97 L 409.091 196.97 L 409.091 212.121 L 393.939 212.121 L 393.939 196.97 Z M 469.697 196.97 L 484.848 196.97 L 484.848 212.121 L 469.697 212.121 L 469.697 196.97 Z M 484.848 196.97 L 500 196.97 L 500 212.121 L 484.848 212.121 L 484.848 196.97 Z M 0 212.121 L 15.152 212.121 L 15.152 227.273 L 0 227.273 L 0 212.121 Z M 60.606 212.121 L 75.758 212.121 L 75.758 227.273 L 60.606 227.273 L 60.606 212.121 Z M 90.909 212.121 L 106.061 212.121 L 106.061 227.273 L 90.909 227.273 L 90.909 212.121 Z M 106.061 212.121 L 121.212 212.121 L 121.212 227.273 L 106.061 227.273 L 106.061 212.121 Z M 136.364 212.121 L 151.515 212.121 L 151.515 227.273 L 136.364 227.273 L 136.364 212.121 Z M 151.515 212.121 L 166.667 212.121 L 166.667 227.273 L 151.515 227.273 L 151.515 212.121 Z M 196.97 212.121 L 212.121 212.121 L 212.121 227.273 L 196.97 227.273 L 196.97 212.121 Z M 212.121 212.121 L 227.273 212.121 L 227.273 227.273 L 212.121 227.273 L 212.121 212.121 Z M 227.273 212.121 L 242.424 212.121 L 242.424 227.273 L 227.273 227.273 L 227.273 212.121 Z M 242.424 212.121 L 257.576 212.121 L 257.576 227.273 L 242.424 227.273 L 242.424 212.121 Z M 257.576 212.121 L 272.727 212.121 L 272.727 227.273 L 257.576 227.273 L 257.576 212.121 Z M 303.03 212.121 L 318.182 212.121 L 318.182 227.273 L 303.03 227.273 L 303.03 212.121 Z M 393.939 212.121 L 409.091 212.121 L 409.091 227.273 L 393.939 227.273 L 393.939 212.121 Z M 469.697 212.121 L 484.848 212.121 L 484.848 227.273 L 469.697 227.273 L 469.697 212.121 Z M 15.152 227.273 L 30.303 227.273 L 30.303 242.424 L 15.152 242.424 L 15.152 227.273 Z M 30.303 227.273 L 45.455 227.273 L 45.455 242.424 L 30.303 242.424 L 30.303 227.273 Z M 75.758 227.273 L 90.909 227.273 L 90.909 242.424 L 75.758 242.424 L 75.758 227.273 Z M 181.818 227.273 L 196.97 227.273 L 196.97 242.424 L 181.818 242.424 L 181.818 227.273 Z M 196.97 227.273 L 212.121 227.273 L 212.121 242.424 L 196.97 242.424 L 196.97 227.273 Z M 242.424 227.273 L 257.576 227.273 L 257.576 242.424 L 242.424 242.424 L 242.424 227.273 Z M 318.182 227.273 L 333.333 227.273 L 333.333 242.424 L 318.182 242.424 L 318.182 227.273 Z M 378.788 227.273 L 393.939 227.273 L 393.939 242.424 L 378.788 242.424 L 378.788 227.273 Z M 409.091 227.273 L 424.242 227.273 L 424.242 242.424 L 409.091 242.424 L 409.091 227.273 Z M 454.545 227.273 L 469.697 227.273 L 469.697 242.424 L 454.545 242.424 L 454.545 227.273 Z M 0 242.424 L 15.152 242.424 L 15.152 257.576 L 0 257.576 L 0 242.424 Z M 90.909 242.424 L 106.061 242.424 L 106.061 257.576 L 90.909 257.576 L 90.909 242.424 Z M 106.061 242.424 L 121.212 242.424 L 121.212 257.576 L 106.061 257.576 L 106.061 242.424 Z M 121.212 242.424 L 136.364 242.424 L 136.364 257.576 L 121.212 257.576 L 121.212 242.424 Z M 136.364 242.424 L 151.515 242.424 L 151.515 257.576 L 136.364 257.576 L 136.364 242.424 Z M 151.515 242.424 L 166.667 242.424 L 166.667 257.576 L 151.515 257.576 L 151.515 242.424 Z M 181.818 242.424 L 196.97 242.424 L 196.97 257.576 L 181.818 257.576 L 181.818 242.424 Z M 212.121 242.424 L 227.273 242.424 L 227.273 257.576 L 212.121 257.576 L 212.121 242.424 Z M 227.273 242.424 L 242.424 242.424 L 242.424 257.576 L 227.273 257.576 L 227.273 242.424 Z M 257.576 242.424 L 272.727 242.424 L 272.727 257.576 L 257.576 257.576 L 257.576 242.424 Z M 287.879 242.424 L 303.03 242.424 L 303.03 257.576 L 287.879 257.576 L 287.879 242.424 Z M 363.636 242.424 L 378.788 242.424 L 378.788 257.576 L 363.636 257.576 L 363.636 242.424 Z M 378.788 242.424 L 393.939 242.424 L 393.939 257.576 L 378.788 257.576 L 378.788 242.424 Z M 409.091 242.424 L 424.242 242.424 L 424.242 257.576 L 409.091 257.576 L 409.091 242.424 Z M 424.242 242.424 L 439.394 242.424 L 439.394 257.576 L 424.242 257.576 L 424.242 242.424 Z M 469.697 242.424 L 484.848 242.424 L 484.848 257.576 L 469.697 257.576 L 469.697 242.424 Z M 15.152 257.576 L 30.303 257.576 L 30.303 272.727 L 15.152 272.727 L 15.152 257.576 Z M 30.303 257.576 L 45.455 257.576 L 45.455 272.727 L 30.303 272.727 L 30.303 257.576 Z M 45.455 257.576 L 60.606 257.576 L 60.606 272.727 L 45.455 272.727 L 45.455 257.576 Z M 60.606 257.576 L 75.758 257.576 L 75.758 272.727 L 60.606 272.727 L 60.606 257.576 Z M 75.758 257.576 L 90.909 257.576 L 90.909 272.727 L 75.758 272.727 L 75.758 257.576 Z M 106.061 257.576 L 121.212 257.576 L 121.212 272.727 L 106.061 272.727 L 106.061 257.576 Z M 136.364 257.576 L 151.515 257.576 L 151.515 272.727 L 136.364 272.727 L 136.364 257.576 Z M 242.424 257.576 L 257.576 257.576 L 257.576 272.727 L 242.424 272.727 L 242.424 257.576 Z M 287.879 257.576 L 303.03 257.576 L 303.03 272.727 L 287.879 272.727 L 287.879 257.576 Z M 303.03 257.576 L 318.182 257.576 L 318.182 272.727 L 303.03 272.727 L 303.03 257.576 Z M 318.182 257.576 L 333.333 257.576 L 333.333 272.727 L 318.182 272.727 L 318.182 257.576 Z M 333.333 257.576 L 348.485 257.576 L 348.485 272.727 L 333.333 272.727 L 333.333 257.576 Z M 348.485 257.576 L 363.636 257.576 L 363.636 272.727 L 348.485 272.727 L 348.485 257.576 Z M 393.939 257.576 L 409.091 257.576 L 409.091 272.727 L 393.939 272.727 L 393.939 257.576 Z M 439.394 257.576 L 454.545 257.576 L 454.545 272.727 L 439.394 272.727 L 439.394 257.576 Z M 469.697 257.576 L 484.848 257.576 L 484.848 272.727 L 469.697 272.727 L 469.697 257.576 Z M 484.848 257.576 L 500 257.576 L 500 272.727 L 484.848 272.727 L 484.848 257.576 Z M 15.152 272.727 L 30.303 272.727 L 30.303 287.879 L 15.152 287.879 L 15.152 272.727 Z M 30.303 272.727 L 45.455 272.727 L 45.455 287.879 L 30.303 287.879 L 30.303 272.727 Z M 75.758 272.727 L 90.909 272.727 L 90.909 287.879 L 75.758 287.879 L 75.758 272.727 Z M 90.909 272.727 L 106.061 272.727 L 106.061 287.879 L 90.909 287.879 L 90.909 272.727 Z M 166.667 272.727 L 181.818 272.727 L 181.818 287.879 L 166.667 287.879 L 166.667 272.727 Z M 181.818 272.727 L 196.97 272.727 L 196.97 287.879 L 181.818 287.879 L 181.818 272.727 Z M 227.273 272.727 L 242.424 272.727 L 242.424 287.879 L 227.273 287.879 L 227.273 272.727 Z M 257.576 272.727 L 272.727 272.727 L 272.727 287.879 L 257.576 287.879 L 257.576 272.727 Z M 272.727 272.727 L 287.879 272.727 L 287.879 287.879 L 272.727 287.879 L 272.727 272.727 Z M 363.636 272.727 L 378.788 272.727 L 378.788 287.879 L 363.636 287.879 L 363.636 272.727 Z M 409.091 272.727 L 424.242 272.727 L 424.242 287.879 L 409.091 287.879 L 409.091 272.727 Z M 439.394 272.727 L 454.545 272.727 L 454.545 287.879 L 439.394 287.879 L 439.394 272.727 Z M 469.697 272.727 L 484.848 272.727 L 484.848 287.879 L 469.697 287.879 L 469.697 272.727 Z M 0 287.879 L 15.152 287.879 L 15.152 303.03 L 0 303.03 L 0 287.879 Z M 15.152 287.879 L 30.303 287.879 L 30.303 303.03 L 15.152 303.03 L 15.152 287.879 Z M 30.303 287.879 L 45.455 287.879 L 45.455 303.03 L 30.303 303.03 L 30.303 287.879 Z M 45.455 287.879 L 60.606 287.879 L 60.606 303.03 L 45.455 303.03 L 45.455 287.879 Z M 75.758 287.879 L 90.909 287.879 L 90.909 303.03 L 75.758 303.03 L 75.758 287.879 Z M 106.061 287.879 L 121.212 287.879 L 121.212 303.03 L 106.061 303.03 L 106.061 287.879 Z M 166.667 287.879 L 181.818 287.879 L 181.818 303.03 L 166.667 303.03 L 166.667 287.879 Z M 212.121 287.879 L 227.273 287.879 L 227.273 303.03 L 212.121 303.03 L 212.121 287.879 Z M 242.424 287.879 L 257.576 287.879 L 257.576 303.03 L 242.424 303.03 L 242.424 287.879 Z M 272.727 287.879 L 287.879 287.879 L 287.879 303.03 L 272.727 303.03 L 272.727 287.879 Z M 287.879 287.879 L 303.03 287.879 L 303.03 303.03 L 287.879 303.03 L 287.879 287.879 Z M 318.182 287.879 L 333.333 287.879 L 333.333 303.03 L 318.182 303.03 L 318.182 287.879 Z M 378.788 287.879 L 393.939 287.879 L 393.939 303.03 L 378.788 303.03 L 378.788 287.879 Z M 393.939 287.879 L 409.091 287.879 L 409.091 303.03 L 393.939 303.03 L 393.939 287.879 Z M 409.091 287.879 L 424.242 287.879 L 424.242 303.03 L 409.091 303.03 L 409.091 287.879 Z M 454.545 287.879 L 469.697 287.879 L 469.697 303.03 L 454.545 303.03 L 454.545 287.879 Z M 0 303.03 L 15.152 303.03 L 15.152 318.182 L 0 318.182 L 0 303.03 Z M 15.152 303.03 L 30.303 303.03 L 30.303 318.182 L 15.152 318.182 L 15.152 303.03 Z M 30.303 303.03 L 45.455 303.03 L 45.455 318.182 L 30.303 318.182 L 30.303 303.03 Z M 60.606 303.03 L 75.758 303.03 L 75.758 318.182 L 60.606 318.182 L 60.606 303.03 Z M 75.758 303.03 L 90.909 303.03 L 90.909 318.182 L 75.758 318.182 L 75.758 303.03 Z M 90.909 303.03 L 106.061 303.03 L 106.061 318.182 L 90.909 318.182 L 90.909 303.03 Z M 121.212 303.03 L 136.364 303.03 L 136.364 318.182 L 121.212 318.182 L 121.212 303.03 Z M 166.667 303.03 L 181.818 303.03 L 181.818 318.182 L 166.667 318.182 L 166.667 303.03 Z M 257.576 303.03 L 272.727 303.03 L 272.727 318.182 L 257.576 318.182 L 257.576 303.03 Z M 303.03 303.03 L 318.182 303.03 L 318.182 318.182 L 303.03 318.182 L 303.03 303.03 Z M 363.636 303.03 L 378.788 303.03 L 378.788 318.182 L 363.636 318.182 L 363.636 303.03 Z M 378.788 303.03 L 393.939 303.03 L 393.939 318.182 L 378.788 318.182 L 378.788 303.03 Z M 424.242 303.03 L 439.394 303.03 L 439.394 318.182 L 424.242 318.182 L 424.242 303.03 Z M 469.697 303.03 L 484.848 303.03 L 484.848 318.182 L 469.697 318.182 L 469.697 303.03 Z M 0 318.182 L 15.152 318.182 L 15.152 333.333 L 0 333.333 L 0 318.182 Z M 45.455 318.182 L 60.606 318.182 L 60.606 333.333 L 45.455 333.333 L 45.455 318.182 Z M 75.758 318.182 L 90.909 318.182 L 90.909 333.333 L 75.758 333.333 L 75.758 318.182 Z M 106.061 318.182 L 121.212 318.182 L 121.212 333.333 L 106.061 333.333 L 106.061 318.182 Z M 121.212 318.182 L 136.364 318.182 L 136.364 333.333 L 121.212 333.333 L 121.212 318.182 Z M 136.364 318.182 L 151.515 318.182 L 151.515 333.333 L 136.364 333.333 L 136.364 318.182 Z M 181.818 318.182 L 196.97 318.182 L 196.97 333.333 L 181.818 333.333 L 181.818 318.182 Z M 196.97 318.182 L 212.121 318.182 L 212.121 333.333 L 196.97 333.333 L 196.97 318.182 Z M 212.121 318.182 L 227.273 318.182 L 227.273 333.333 L 212.121 333.333 L 212.121 318.182 Z M 242.424 318.182 L 257.576 318.182 L 257.576 333.333 L 242.424 333.333 L 242.424 318.182 Z M 287.879 318.182 L 303.03 318.182 L 303.03 333.333 L 287.879 333.333 L 287.879 318.182 Z M 303.03 318.182 L 318.182 318.182 L 318.182 333.333 L 303.03 333.333 L 303.03 318.182 Z M 333.333 318.182 L 348.485 318.182 L 348.485 333.333 L 333.333 333.333 L 333.333 318.182 Z M 348.485 318.182 L 363.636 318.182 L 363.636 333.333 L 348.485 333.333 L 348.485 318.182 Z M 393.939 318.182 L 409.091 318.182 L 409.091 333.333 L 393.939 333.333 L 393.939 318.182 Z M 439.394 318.182 L 454.545 318.182 L 454.545 333.333 L 439.394 333.333 L 439.394 318.182 Z M 469.697 318.182 L 484.848 318.182 L 484.848 333.333 L 469.697 333.333 L 469.697 318.182 Z M 484.848 318.182 L 500 318.182 L 500 333.333 L 484.848 333.333 L 484.848 318.182 Z M 0 333.333 L 15.152 333.333 L 15.152 348.485 L 0 348.485 L 0 333.333 Z M 45.455 333.333 L 60.606 333.333 L 60.606 348.485 L 45.455 348.485 L 45.455 333.333 Z M 90.909 333.333 L 106.061 333.333 L 106.061 348.485 L 90.909 348.485 L 90.909 333.333 Z M 106.061 333.333 L 121.212 333.333 L 121.212 348.485 L 106.061 348.485 L 106.061 333.333 Z M 151.515 333.333 L 166.667 333.333 L 166.667 348.485 L 151.515 348.485 L 151.515 333.333 Z M 196.97 333.333 L 212.121 333.333 L 212.121 348.485 L 196.97 348.485 L 196.97 333.333 Z M 212.121 333.333 L 227.273 333.333 L 227.273 348.485 L 212.121 348.485 L 212.121 333.333 Z M 227.273 333.333 L 242.424 333.333 L 242.424 348.485 L 227.273 348.485 L 227.273 333.333 Z M 242.424 333.333 L 257.576 333.333 L 257.576 348.485 L 242.424 348.485 L 242.424 333.333 Z M 257.576 333.333 L 272.727 333.333 L 272.727 348.485 L 257.576 348.485 L 257.576 333.333 Z M 272.727 333.333 L 287.879 333.333 L 287.879 348.485 L 272.727 348.485 L 272.727 333.333 Z M 303.03 333.333 L 318.182 333.333 L 318.182 348.485 L 303.03 348.485 L 303.03 333.333 Z M 318.182 333.333 L 333.333 333.333 L 333.333 348.485 L 318.182 348.485 L 318.182 333.333 Z M 363.636 333.333 L 378.788 333.333 L 378.788 348.485 L 363.636 348.485 L 363.636 333.333 Z M 393.939 333.333 L 409.091 333.333 L 409.091 348.485 L 393.939 348.485 L 393.939 333.333 Z M 409.091 333.333 L 424.242 333.333 L 424.242 348.485 L 409.091 348.485 L 409.091 333.333 Z M 424.242 333.333 L 439.394 333.333 L 439.394 348.485 L 424.242 348.485 L 424.242 333.333 Z M 439.394 333.333 L 454.545 333.333 L 454.545 348.485 L 439.394 348.485 L 439.394 333.333 Z M 469.697 333.333 L 484.848 333.333 L 484.848 348.485 L 469.697 348.485 L 469.697 333.333 Z M 0 348.485 L 15.152 348.485 L 15.152 363.636 L 0 363.636 L 0 348.485 Z M 30.303 348.485 L 45.455 348.485 L 45.455 363.636 L 30.303 363.636 L 30.303 348.485 Z M 75.758 348.485 L 90.909 348.485 L 90.909 363.636 L 75.758 363.636 L 75.758 348.485 Z M 106.061 348.485 L 121.212 348.485 L 121.212 363.636 L 106.061 363.636 L 106.061 348.485 Z M 121.212 348.485 L 136.364 348.485 L 136.364 363.636 L 121.212 363.636 L 121.212 348.485 Z M 136.364 348.485 L 151.515 348.485 L 151.515 363.636 L 136.364 363.636 L 136.364 348.485 Z M 151.515 348.485 L 166.667 348.485 L 166.667 363.636 L 151.515 363.636 L 151.515 348.485 Z M 181.818 348.485 L 196.97 348.485 L 196.97 363.636 L 181.818 363.636 L 181.818 348.485 Z M 196.97 348.485 L 212.121 348.485 L 212.121 363.636 L 196.97 363.636 L 196.97 348.485 Z M 227.273 348.485 L 242.424 348.485 L 242.424 363.636 L 227.273 363.636 L 227.273 348.485 Z M 242.424 348.485 L 257.576 348.485 L 257.576 363.636 L 242.424 363.636 L 242.424 348.485 Z M 303.03 348.485 L 318.182 348.485 L 318.182 363.636 L 303.03 363.636 L 303.03 348.485 Z M 318.182 348.485 L 333.333 348.485 L 333.333 363.636 L 318.182 363.636 L 318.182 348.485 Z M 348.485 348.485 L 363.636 348.485 L 363.636 363.636 L 348.485 363.636 L 348.485 348.485 Z M 378.788 348.485 L 393.939 348.485 L 393.939 363.636 L 378.788 363.636 L 378.788 348.485 Z M 424.242 348.485 L 439.394 348.485 L 439.394 363.636 L 424.242 363.636 L 424.242 348.485 Z M 439.394 348.485 L 454.545 348.485 L 454.545 363.636 L 439.394 363.636 L 439.394 348.485 Z M 454.545 348.485 L 469.697 348.485 L 469.697 363.636 L 454.545 363.636 L 454.545 348.485 Z M 0 363.636 L 15.152 363.636 L 15.152 378.788 L 0 378.788 L 0 363.636 Z M 45.455 363.636 L 60.606 363.636 L 60.606 378.788 L 45.455 378.788 L 45.455 363.636 Z M 60.606 363.636 L 75.758 363.636 L 75.758 378.788 L 60.606 378.788 L 60.606 363.636 Z M 90.909 363.636 L 106.061 363.636 L 106.061 378.788 L 90.909 378.788 L 90.909 363.636 Z M 181.818 363.636 L 196.97 363.636 L 196.97 378.788 L 181.818 378.788 L 181.818 363.636 Z M 212.121 363.636 L 227.273 363.636 L 227.273 378.788 L 212.121 378.788 L 212.121 363.636 Z M 227.273 363.636 L 242.424 363.636 L 242.424 378.788 L 227.273 378.788 L 227.273 363.636 Z M 242.424 363.636 L 257.576 363.636 L 257.576 378.788 L 242.424 378.788 L 242.424 363.636 Z M 257.576 363.636 L 272.727 363.636 L 272.727 378.788 L 257.576 378.788 L 257.576 363.636 Z M 348.485 363.636 L 363.636 363.636 L 363.636 378.788 L 348.485 378.788 L 348.485 363.636 Z M 363.636 363.636 L 378.788 363.636 L 378.788 378.788 L 363.636 378.788 L 363.636 363.636 Z M 378.788 363.636 L 393.939 363.636 L 393.939 378.788 L 378.788 378.788 L 378.788 363.636 Z M 393.939 363.636 L 409.091 363.636 L 409.091 378.788 L 393.939 378.788 L 393.939 363.636 Z M 409.091 363.636 L 424.242 363.636 L 424.242 378.788 L 409.091 378.788 L 409.091 363.636 Z M 424.242 363.636 L 439.394 363.636 L 439.394 378.788 L 424.242 378.788 L 424.242 363.636 Z M 484.848 363.636 L 500 363.636 L 500 378.788 L 484.848 378.788 L 484.848 363.636 Z M 121.212 378.788 L 136.364 378.788 L 136.364 393.939 L 121.212 393.939 L 121.212 378.788 Z M 242.424 378.788 L 257.576 378.788 L 257.576 393.939 L 242.424 393.939 L 242.424 378.788 Z M 287.879 378.788 L 303.03 378.788 L 303.03 393.939 L 287.879 393.939 L 287.879 378.788 Z M 303.03 378.788 L 318.182 378.788 L 318.182 393.939 L 303.03 393.939 L 303.03 378.788 Z M 318.182 378.788 L 333.333 378.788 L 333.333 393.939 L 318.182 393.939 L 318.182 378.788 Z M 333.333 378.788 L 348.485 378.788 L 348.485 393.939 L 333.333 393.939 L 333.333 378.788 Z M 363.636 378.788 L 378.788 378.788 L 378.788 393.939 L 363.636 393.939 L 363.636 378.788 Z M 424.242 378.788 L 439.394 378.788 L 439.394 393.939 L 424.242 393.939 L 424.242 378.788 Z M 454.545 378.788 L 469.697 378.788 L 469.697 393.939 L 454.545 393.939 L 454.545 378.788 Z M 484.848 378.788 L 500 378.788 L 500 393.939 L 484.848 393.939 L 484.848 378.788 Z M 0 393.939 L 15.152 393.939 L 15.152 409.091 L 0 409.091 L 0 393.939 Z M 15.152 393.939 L 30.303 393.939 L 30.303 409.091 L 15.152 409.091 L 15.152 393.939 Z M 30.303 393.939 L 45.455 393.939 L 45.455 409.091 L 30.303 409.091 L 30.303 393.939 Z M 45.455 393.939 L 60.606 393.939 L 60.606 409.091 L 45.455 409.091 L 45.455 393.939 Z M 60.606 393.939 L 75.758 393.939 L 75.758 409.091 L 60.606 409.091 L 60.606 393.939 Z M 75.758 393.939 L 90.909 393.939 L 90.909 409.091 L 75.758 409.091 L 75.758 393.939 Z M 90.909 393.939 L 106.061 393.939 L 106.061 409.091 L 90.909 409.091 L 90.909 393.939 Z M 121.212 393.939 L 136.364 393.939 L 136.364 409.091 L 121.212 409.091 L 121.212 393.939 Z M 151.515 393.939 L 166.667 393.939 L 166.667 409.091 L 151.515 409.091 L 151.515 393.939 Z M 166.667 393.939 L 181.818 393.939 L 181.818 409.091 L 166.667 409.091 L 166.667 393.939 Z M 181.818 393.939 L 196.97 393.939 L 196.97 409.091 L 181.818 409.091 L 181.818 393.939 Z M 227.273 393.939 L 242.424 393.939 L 242.424 409.091 L 227.273 409.091 L 227.273 393.939 Z M 303.03 393.939 L 318.182 393.939 L 318.182 409.091 L 303.03 409.091 L 303.03 393.939 Z M 348.485 393.939 L 363.636 393.939 L 363.636 409.091 L 348.485 409.091 L 348.485 393.939 Z M 363.636 393.939 L 378.788 393.939 L 378.788 409.091 L 363.636 409.091 L 363.636 393.939 Z M 393.939 393.939 L 409.091 393.939 L 409.091 409.091 L 393.939 409.091 L 393.939 393.939 Z M 424.242 393.939 L 439.394 393.939 L 439.394 409.091 L 424.242 409.091 L 424.242 393.939 Z M 439.394 393.939 L 454.545 393.939 L 454.545 409.091 L 439.394 409.091 L 439.394 393.939 Z M 454.545 393.939 L 469.697 393.939 L 469.697 409.091 L 454.545 409.091 L 454.545 393.939 Z M 469.697 393.939 L 484.848 393.939 L 484.848 409.091 L 469.697 409.091 L 469.697 393.939 Z M 0 409.091 L 15.152 409.091 L 15.152 424.242 L 0 424.242 L 0 409.091 Z M 90.909 409.091 L 106.061 409.091 L 106.061 424.242 L 90.909 424.242 L 90.909 409.091 Z M 136.364 409.091 L 151.515 409.091 L 151.515 424.242 L 136.364 424.242 L 136.364 409.091 Z M 166.667 409.091 L 181.818 409.091 L 181.818 424.242 L 166.667 424.242 L 166.667 409.091 Z M 212.121 409.091 L 227.273 409.091 L 227.273 424.242 L 212.121 424.242 L 212.121 409.091 Z M 227.273 409.091 L 242.424 409.091 L 242.424 424.242 L 227.273 424.242 L 227.273 409.091 Z M 242.424 409.091 L 257.576 409.091 L 257.576 424.242 L 242.424 424.242 L 242.424 409.091 Z M 272.727 409.091 L 287.879 409.091 L 287.879 424.242 L 272.727 424.242 L 272.727 409.091 Z M 287.879 409.091 L 303.03 409.091 L 303.03 424.242 L 287.879 424.242 L 287.879 409.091 Z M 318.182 409.091 L 333.333 409.091 L 333.333 424.242 L 318.182 424.242 L 318.182 409.091 Z M 363.636 409.091 L 378.788 409.091 L 378.788 424.242 L 363.636 424.242 L 363.636 409.091 Z M 424.242 409.091 L 439.394 409.091 L 439.394 424.242 L 424.242 424.242 L 424.242 409.091 Z M 439.394 409.091 L 454.545 409.091 L 454.545 424.242 L 439.394 424.242 L 439.394 409.091 Z M 454.545 409.091 L 469.697 409.091 L 469.697 424.242 L 454.545 424.242 L 454.545 409.091 Z M 484.848 409.091 L 500 409.091 L 500 424.242 L 484.848 424.242 L 484.848 409.091 Z M 0 424.242 L 15.152 424.242 L 15.152 439.394 L 0 439.394 L 0 424.242 Z M 30.303 424.242 L 45.455 424.242 L 45.455 439.394 L 30.303 439.394 L 30.303 424.242 Z M 45.455 424.242 L 60.606 424.242 L 60.606 439.394 L 45.455 439.394 L 45.455 424.242 Z M 60.606 424.242 L 75.758 424.242 L 75.758 439.394 L 60.606 439.394 L 60.606 424.242 Z M 90.909 424.242 L 106.061 424.242 L 106.061 439.394 L 90.909 439.394 L 90.909 424.242 Z M 121.212 424.242 L 136.364 424.242 L 136.364 439.394 L 121.212 439.394 L 121.212 424.242 Z M 136.364 424.242 L 151.515 424.242 L 151.515 439.394 L 136.364 439.394 L 136.364 424.242 Z M 166.667 424.242 L 181.818 424.242 L 181.818 439.394 L 166.667 439.394 L 166.667 424.242 Z M 257.576 424.242 L 272.727 424.242 L 272.727 439.394 L 257.576 439.394 L 257.576 424.242 Z M 303.03 424.242 L 318.182 424.242 L 318.182 439.394 L 303.03 439.394 L 303.03 424.242 Z M 363.636 424.242 L 378.788 424.242 L 378.788 439.394 L 363.636 439.394 L 363.636 424.242 Z M 378.788 424.242 L 393.939 424.242 L 393.939 439.394 L 378.788 439.394 L 378.788 424.242 Z M 393.939 424.242 L 409.091 424.242 L 409.091 439.394 L 393.939 439.394 L 393.939 424.242 Z M 409.091 424.242 L 424.242 424.242 L 424.242 439.394 L 409.091 439.394 L 409.091 424.242 Z M 424.242 424.242 L 439.394 424.242 L 439.394 439.394 L 424.242 439.394 L 424.242 424.242 Z M 439.394 424.242 L 454.545 424.242 L 454.545 439.394 L 439.394 439.394 L 439.394 424.242 Z M 484.848 424.242 L 500 424.242 L 500 439.394 L 484.848 439.394 L 484.848 424.242 Z M 0 439.394 L 15.152 439.394 L 15.152 454.545 L 0 454.545 L 0 439.394 Z M 30.303 439.394 L 45.455 439.394 L 45.455 454.545 L 30.303 454.545 L 30.303 439.394 Z M 45.455 439.394 L 60.606 439.394 L 60.606 454.545 L 45.455 454.545 L 45.455 439.394 Z M 60.606 439.394 L 75.758 439.394 L 75.758 454.545 L 60.606 454.545 L 60.606 439.394 Z M 90.909 439.394 L 106.061 439.394 L 106.061 454.545 L 90.909 454.545 L 90.909 439.394 Z M 121.212 439.394 L 136.364 439.394 L 136.364 454.545 L 121.212 454.545 L 121.212 439.394 Z M 151.515 439.394 L 166.667 439.394 L 166.667 454.545 L 151.515 454.545 L 151.515 439.394 Z M 181.818 439.394 L 196.97 439.394 L 196.97 454.545 L 181.818 454.545 L 181.818 439.394 Z M 196.97 439.394 L 212.121 439.394 L 212.121 454.545 L 196.97 454.545 L 196.97 439.394 Z M 212.121 439.394 L 227.273 439.394 L 227.273 454.545 L 212.121 454.545 L 212.121 439.394 Z M 242.424 439.394 L 257.576 439.394 L 257.576 454.545 L 242.424 454.545 L 242.424 439.394 Z M 272.727 439.394 L 287.879 439.394 L 287.879 454.545 L 272.727 454.545 L 272.727 439.394 Z M 287.879 439.394 L 303.03 439.394 L 303.03 454.545 L 287.879 454.545 L 287.879 439.394 Z M 303.03 439.394 L 318.182 439.394 L 318.182 454.545 L 303.03 454.545 L 303.03 439.394 Z M 318.182 439.394 L 333.333 439.394 L 333.333 454.545 L 318.182 454.545 L 318.182 439.394 Z M 333.333 439.394 L 348.485 439.394 L 348.485 454.545 L 333.333 454.545 L 333.333 439.394 Z M 348.485 439.394 L 363.636 439.394 L 363.636 454.545 L 348.485 454.545 L 348.485 439.394 Z M 363.636 439.394 L 378.788 439.394 L 378.788 454.545 L 363.636 454.545 L 363.636 439.394 Z M 378.788 439.394 L 393.939 439.394 L 393.939 454.545 L 378.788 454.545 L 378.788 439.394 Z M 409.091 439.394 L 424.242 439.394 L 424.242 454.545 L 409.091 454.545 L 409.091 439.394 Z M 424.242 439.394 L 439.394 439.394 L 439.394 454.545 L 424.242 454.545 L 424.242 439.394 Z M 454.545 439.394 L 469.697 439.394 L 469.697 454.545 L 454.545 454.545 L 454.545 439.394 Z M 469.697 439.394 L 484.848 439.394 L 484.848 454.545 L 469.697 454.545 L 469.697 439.394 Z M 484.848 439.394 L 500 439.394 L 500 454.545 L 484.848 454.545 L 484.848 439.394 Z M 0 454.545 L 15.152 454.545 L 15.152 469.697 L 0 469.697 L 0 454.545 Z M 30.303 454.545 L 45.455 454.545 L 45.455 469.697 L 30.303 469.697 L 30.303 454.545 Z M 45.455 454.545 L 60.606 454.545 L 60.606 469.697 L 45.455 469.697 L 45.455 454.545 Z M 60.606 454.545 L 75.758 454.545 L 75.758 469.697 L 60.606 469.697 L 60.606 454.545 Z M 90.909 454.545 L 106.061 454.545 L 106.061 469.697 L 90.909 469.697 L 90.909 454.545 Z M 121.212 454.545 L 136.364 454.545 L 136.364 469.697 L 121.212 469.697 L 121.212 454.545 Z M 151.515 454.545 L 166.667 454.545 L 166.667 469.697 L 151.515 469.697 L 151.515 454.545 Z M 196.97 454.545 L 212.121 454.545 L 212.121 469.697 L 196.97 469.697 L 196.97 454.545 Z M 212.121 454.545 L 227.273 454.545 L 227.273 469.697 L 212.121 469.697 L 212.121 454.545 Z M 227.273 454.545 L 242.424 454.545 L 242.424 469.697 L 227.273 469.697 L 227.273 454.545 Z M 303.03 454.545 L 318.182 454.545 L 318.182 469.697 L 303.03 469.697 L 303.03 454.545 Z M 318.182 454.545 L 333.333 454.545 L 333.333 469.697 L 318.182 469.697 L 318.182 454.545 Z M 333.333 454.545 L 348.485 454.545 L 348.485 469.697 L 333.333 469.697 L 333.333 454.545 Z M 393.939 454.545 L 409.091 454.545 L 409.091 469.697 L 393.939 469.697 L 393.939 454.545 Z M 409.091 454.545 L 424.242 454.545 L 424.242 469.697 L 409.091 469.697 L 409.091 454.545 Z M 0 469.697 L 15.152 469.697 L 15.152 484.848 L 0 484.848 L 0 469.697 Z M 90.909 469.697 L 106.061 469.697 L 106.061 484.848 L 90.909 484.848 L 90.909 469.697 Z M 121.212 469.697 L 136.364 469.697 L 136.364 484.848 L 121.212 484.848 L 121.212 469.697 Z M 151.515 469.697 L 166.667 469.697 L 166.667 484.848 L 151.515 484.848 L 151.515 469.697 Z M 181.818 469.697 L 196.97 469.697 L 196.97 484.848 L 181.818 484.848 L 181.818 469.697 Z M 196.97 469.697 L 212.121 469.697 L 212.121 484.848 L 196.97 484.848 L 196.97 469.697 Z M 227.273 469.697 L 242.424 469.697 L 242.424 484.848 L 227.273 484.848 L 227.273 469.697 Z M 242.424 469.697 L 257.576 469.697 L 257.576 484.848 L 242.424 484.848 L 242.424 469.697 Z M 287.879 469.697 L 303.03 469.697 L 303.03 484.848 L 287.879 484.848 L 287.879 469.697 Z M 303.03 469.697 L 318.182 469.697 L 318.182 484.848 L 303.03 484.848 L 303.03 469.697 Z M 318.182 469.697 L 333.333 469.697 L 333.333 484.848 L 318.182 484.848 L 318.182 469.697 Z M 348.485 469.697 L 363.636 469.697 L 363.636 484.848 L 348.485 484.848 L 348.485 469.697 Z M 378.788 469.697 L 393.939 469.697 L 393.939 484.848 L 378.788 484.848 L 378.788 469.697 Z M 424.242 469.697 L 439.394 469.697 L 439.394 484.848 L 424.242 484.848 L 424.242 469.697 Z M 439.394 469.697 L 454.545 469.697 L 454.545 484.848 L 439.394 484.848 L 439.394 469.697 Z M 454.545 469.697 L 469.697 469.697 L 469.697 484.848 L 454.545 484.848 L 454.545 469.697 Z M 0 484.848 L 15.152 484.848 L 15.152 500 L 0 500 L 0 484.848 Z M 15.152 484.848 L 30.303 484.848 L 30.303 500 L 15.152 500 L 15.152 484.848 Z M 30.303 484.848 L 45.455 484.848 L 45.455 500 L 30.303 500 L 30.303 484.848 Z M 45.455 484.848 L 60.606 484.848 L 60.606 500 L 45.455 500 L 45.455 484.848 Z M 60.606 484.848 L 75.758 484.848 L 75.758 500 L 60.606 500 L 60.606 484.848 Z M 75.758 484.848 L 90.909 484.848 L 90.909 500 L 75.758 500 L 75.758 484.848 Z M 90.909 484.848 L 106.061 484.848 L 106.061 500 L 90.909 500 L 90.909 484.848 Z M 121.212 484.848 L 136.364 484.848 L 136.364 500 L 121.212 500 L 121.212 484.848 Z M 136.364 484.848 L 151.515 484.848 L 151.515 500 L 136.364 500 L 136.364 484.848 Z M 151.515 484.848 L 166.667 484.848 L 166.667 500 L 151.515 500 L 151.515 484.848 Z M 181.818 484.848 L 196.97 484.848 L 196.97 500 L 181.818 500 L 181.818 484.848 Z M 212.121 484.848 L 227.273 484.848 L 227.273 500 L 212.121 500 L 212.121 484.848 Z M 257.576 484.848 L 272.727 484.848 L 272.727 500 L 257.576 500 L 257.576 484.848 Z M 287.879 484.848 L 303.03 484.848 L 303.03 500 L 287.879 500 L 287.879 484.848 Z M 348.485 484.848 L 363.636 484.848 L 363.636 500 L 348.485 500 L 348.485 484.848 Z M 363.636 484.848 L 378.788 484.848 L 378.788 500 L 363.636 500 L 363.636 484.848 Z M 393.939 484.848 L 409.091 484.848 L 409.091 500 L 393.939 500 L 393.939 484.848 Z M 409.091 484.848 L 424.242 484.848 L 424.242 500 L 409.091 500 L 409.091 484.848 Z M 439.394 484.848 L 454.545 484.848 L 454.545 500 L 439.394 500 L 439.394 484.848 Z M 469.697 484.848 L 484.848 484.848 L 484.848 500 L 469.697 500 L 469.697 484.848 Z" stroke="transparent" fill="black" style=""/>
</svg>